<?xml version="1.0" encoding="UTF-8"?>
<svg id="Layer_1" data-name="Layer 1" xmlns="http://www.w3.org/2000/svg" viewBox="0 0 41 57">
  <defs>
    <style>
      .cls-1 {
        fill: #fff;
      }
    </style>
  </defs>
  <path class="cls-1" d="M40.58,25.11C36.24.95,10.32-1.66.83,19.83c-.32.92-.61,1.57-.35,2.19.67.64,1.94-2.02,2.29-2.64,3.87-7.5,13.1-12.49,21.52-10.26,2.43.54,4.89,2.21,4.98,4.88.07,2.32.02,5.71.02,7.9-.03.59-.06,1.26-.48,1.65-.62.46-1.49.32-2.25.42-6.3.5-15.25,1.98-20.22,6.71-3.51,3.3-4.08,8.82-2.05,13.05,2.93,6.55,11.66,8.51,17.96,7.94,8.45-.59,15.72-7.59,18.18-16.99.73-3.19.74-6.3.17-9.53v-.05ZM29.25,40.63c-.18,1.56-.71,2.9-1.63,4.56-1.15,2.16-3.59,2.95-5.88,2.64-4.96-.63-7.06-6.44-6.41-10.91.86-6.2,6.48-9.02,11.65-9.86.56-.09,1.35-.19,1.78.03.47.24.5.82.52,1.32,0,2.94.04,8.71-.02,12.21v.02Z"/>
</svg>