<?xml version="1.0" encoding="UTF-8"?>
<svg id="Layer_1" data-name="Layer 1" xmlns="http://www.w3.org/2000/svg" viewBox="0 0 50 51">
  <defs>
    <style>
      .cls-1 {
        fill: #1e1e1e;
      }

      .cls-2 {
        fill: #e31e24;
      }
    </style>
  </defs>
  <path class="cls-2" d="M3.42,22.57v22.46l14.44-11.23L3.42,22.57Z"/>
  <path class="cls-2" d="M41.08,16.73v6.9l4.26-3.32-4.26-3.59Z"/>
  <path class="cls-2" d="M25.82,3.88c-.47-.4-1.16-.4-1.64,0l-3.37,2.83h8.37l-3.37-2.83Z"/>
  <path class="cls-2" d="M8.92,16.73l-4.26,3.59,4.26,3.32v-6.9Z"/>
  <path class="cls-2" d="M20.36,35.07l-15.23,11.85h39.75l-15.23-11.85h-9.29Z"/>
  <path class="cls-2" d="M32.15,33.8l14.44,11.23v-22.46l-14.44,11.23Z"/>
  <path class="cls-1" d="M24.68,18.77c-1.03,0-2.09,1-2.09,2.68s1.04,2.85,2.01,2.85c1.02,0,1.86-1.2,1.92-2.7v-.32c-.04-1.48-.79-2.51-1.83-2.51Z"/>
  <path class="cls-1" d="M29.64,32.53l8.9-6.92v-15.08c0-.7-.57-1.27-1.27-1.27H12.73c-.7,0-1.27.57-1.27,1.27v15.08l8.9,6.92h9.29ZM16.05,23.89c-.61-2.31-.3-4.74.86-6.84,1.16-2.11,3.05-3.66,5.32-4.39,2.4-.76,4.94-.54,7.16.63,2.22,1.17,3.85,3.14,4.57,5.55,0,.01,0,.03.01.04.48,1.81.34,3.51-.46,5.53-.54,1.36-1.87,2.82-3.98,2.82-.76,0-1.5-.31-2.06-.88-.13-.13-.25-.28-.36-.44-.71.58-1.57.91-2.51.91-1.23,0-2.42-.6-3.27-1.63-.82-1-1.28-2.33-1.28-3.75s.48-2.74,1.36-3.71c.86-.96,2.06-1.5,3.28-1.5.67,0,1.31.16,1.88.46.11-.59.63-1.03,1.25-1.03h0c.7,0,1.27.57,1.26,1.28l-.03,7.05c0,.22.08.43.23.58.05.05.15.13.26.13,1.02,0,1.48-.85,1.62-1.22.59-1.49.71-2.67.37-3.92-.53-1.74-1.71-3.17-3.32-4.01-1.62-.85-3.47-1.01-5.21-.46-3.44,1.09-5.41,4.68-4.49,8.17.76,2.89,3.38,4.97,6.36,5.06.7.02,1.25.6,1.23,1.3-.02.69-.58,1.23-1.27,1.23-.01,0-.02,0-.04,0-1.97-.05-3.91-.75-5.47-1.97-1.62-1.26-2.75-2.98-3.28-4.98Z"/>
</svg>