<?xml version="1.0" encoding="UTF-8"?>
<svg id="Layer_1" data-name="Layer 1" xmlns="http://www.w3.org/2000/svg" viewBox="0 0 50 51">
  <defs>
    <style>
      .cls-1 {
        fill: #1e1e1e;
      }

      .cls-2 {
        fill: #e31e24;
      }
    </style>
  </defs>
  <path class="cls-2" d="M38.11,33.55c-1.85-1.84-4.85-1.84-6.7,0l-1.13,1.14c-1,1-2.58,1.15-3.75.36-4.46-3.05-8.27-6.86-11.32-11.32-.8-1.17-.65-2.75.36-3.75l1.14-1.13c1.84-1.85,1.84-4.85,0-6.7l-2.39-2.38c-1.84-1.85-4.85-1.85-6.79.1-4.89,4.89-5.59,12.47-1.65,18.04,4.53,6.4,10.07,11.94,16.47,16.47,2.42,1.7,5.21,2.54,8.01,2.54,3.63,0,7.27-1.41,10.03-4.19l.1-.1c1.84-1.84,1.84-4.85,0-6.69l-2.38-2.39h0Z"/>
  <path class="cls-1" d="M45.3,24.19c.76,0,1.37-.61,1.37-1.37,0-5.15-2-9.98-5.64-13.6-3.62-3.64-8.45-5.64-13.6-5.64-.76,0-1.37.61-1.37,1.37s.61,1.37,1.37,1.37c4.41,0,8.55,1.71,11.66,4.83,3.12,3.1,4.83,7.24,4.83,11.65,0,.76.61,1.37,1.37,1.37h0Z"/>
  <path class="cls-1" d="M39.79,24.19c.76,0,1.37-.61,1.37-1.37,0-3.67-1.43-7.12-4.02-9.71-2.59-2.59-6.04-4.02-9.71-4.02-.76,0-1.37.61-1.37,1.37s.61,1.37,1.37,1.37c2.94,0,5.7,1.14,7.77,3.21,2.07,2.07,3.21,4.83,3.21,7.77,0,.76.61,1.37,1.37,1.37Z"/>
  <path class="cls-1" d="M27.44,14.58c-.76,0-1.37.61-1.37,1.37s.61,1.37,1.37,1.37c1.46,0,2.85.57,3.89,1.6,1.04,1.05,1.61,2.43,1.61,3.9,0,.76.61,1.37,1.37,1.37s1.37-.61,1.37-1.37c0-2.19-.85-4.26-2.41-5.84-1.57-1.55-3.64-2.4-5.83-2.4Z"/>
</svg>