<?xml version="1.0" encoding="UTF-8"?>
<svg id="Layer_1" data-name="Layer 1" xmlns="http://www.w3.org/2000/svg" viewBox="0 0 50 51">
  <defs>
    <style>
      .cls-1 {
        fill: #1e1e1e;
      }

      .cls-2 {
        fill: #e31e24;
        fill-rule: evenodd;
      }
    </style>
  </defs>
  <path class="cls-2" d="M25,3.88c-7.75,0-14.06,6.46-14.06,14.45,0,4.29,2.09,8.85,4.66,12.75,3.71,5.63,8.35,9.88,8.35,9.88.6.55,1.51.55,2.11,0,0,0,4.64-4.25,8.35-9.88,2.57-3.9,4.66-8.46,4.66-12.75,0-7.99-6.31-14.45-14.06-14.45ZM25,10.13c4.31,0,7.81,3.5,7.81,7.81s-3.5,7.81-7.81,7.81-7.81-3.5-7.81-7.81,3.5-7.81,7.81-7.81ZM15.54,34.66c-.1,0-.21.02-.31.05-2.57.67-4.57,1.63-5.78,2.68-1.11.98-1.64,2.09-1.64,3.2,0,1.34.79,2.7,2.44,3.81,2.77,1.87,8.33,3.22,14.75,3.22s11.98-1.35,14.75-3.22c1.65-1.11,2.44-2.47,2.44-3.81,0-1.11-.53-2.22-1.64-3.2-1.21-1.06-3.21-2.01-5.78-2.68-.83-.22-1.69.28-1.91,1.11-.22.83.28,1.69,1.11,1.91,1.69.45,3.09,1,4.06,1.67.57.39,1.02.73,1.02,1.19,0,.24-.16.44-.37.65-.41.43-1.01.81-1.76,1.17-2.69,1.29-7.04,2.09-11.94,2.09s-9.24-.8-11.94-2.09c-.75-.36-1.35-.74-1.76-1.17-.2-.21-.37-.41-.37-.65,0-.47.45-.8,1.02-1.19.97-.66,2.37-1.22,4.06-1.67.83-.22,1.33-1.07,1.11-1.91-.19-.73-.87-1.21-1.6-1.17Z"/>
  <circle class="cls-1" cx="25.04" cy="17.91" r="4.64"/>
</svg>